<svg width="2160" height="396" viewBox="0 0 2160 396" fill="none" xmlns="http://www.w3.org/2000/svg">
    <path
        d="M1671 384L2120 392.5L2084.5 382L2017.5 368.5L2007 358.5L1974 343.5L1976 279H1978L1974 260L1972 268.5L1966 255.5V250.5H1968L1963.5 241.5H1961V221H1963.5L1958.5 186L1952.5 221H1954.5V236.5L1913.5 222.5V199.5L1910 185L1901.5 119V112.5H1904V110.5H1901.5V106.5H1899.5V110.5H1897.5V112.5H1899.5V119L1896.5 185L1892 199.5V215.5L1836.5 196V175H1838.5L1832.5 146.5L1825.5 175H1827V214.5L1818.5 212V210H1820.5L1815 175L1817 171.5L1794 98.5L1793.5 85.5L1798 82V76L1802.5 73.5V53.5H1804L1801 43L1798 53.5L1796 48L1793.5 57L1791.5 53L1787 65.5L1788.5 67V79.5L1771.5 25L1769.5 0L1768.5 25L1718.5 171.5L1720.5 175V193.5L1723.5 196V198.5L1725 199.5V276L1723.5 277V282.5L1705 289.5L1705.5 263.5H1708L1691 189.5L1690 171.5V189.5L1671 263.5H1675L1671 384Z"
        fill="#0E0D11" />
    <path
        d="M199.5 383.86L118 391.279L0.5 396H2159.5L2070.5 385.209L2031 382.287L1956.5 378.915L1912.5 371.271L1870.5 368.798L1815 367C1786.5 369.698 1691 356 1685 356C1681.4 356 1661.83 369.698 1632.5 367L1555.5 368.798L1491.5 360L1459.5 363.5L1454 367L1431 371.271H1412L1312.5 375.093H1166L1060 371.271L953 367L878.5 371.271C851.333 372.545 795.1 375.093 787.5 375.093C779.9 375.093 694.333 369.698 652.5 367H591.5L513.5 375.093H310.5L275.5 380.488L199.5 383.86Z"
        fill="#0E0D11" />
</svg>