<svg width="190" height="190" viewBox="0 0 190 190" fill="none" xmlns="http://www.w3.org/2000/svg">
<g filter="url(#filter0_d_189_194)">
<circle cx="95" cy="95" r="75" fill="white"/>
</g>
<g clip-path="url(#clip0_189_194)">
<path d="M95 165C133.66 165 165 133.66 165 95C165 56.3401 133.66 25 95 25C56.3401 25 25 56.3401 25 95C25 133.66 56.3401 165 95 165Z" fill="#7359F8"/>
<path d="M153.503 83.6581C153.503 100.319 146.557 115.357 135.403 126.035C131.708 129.574 127.55 132.631 123.03 135.111C114.667 139.703 105.059 142.315 94.8455 142.315C84.6318 142.315 75.0289 139.706 66.6658 135.114C65.3178 134.376 64.0037 133.586 62.7251 132.746C59.7085 130.771 56.8855 128.52 54.2903 126.035C43.1357 115.359 36.1877 100.319 36.1877 83.6578C36.1877 51.262 62.4497 25 94.8455 25C127.241 25 153.503 51.2623 153.503 83.6581Z" fill="#302C45"/>
<path d="M75.9029 88.8684C72.6285 89.4771 69.7743 91.7942 68.6344 95.1769C68.2171 96.4197 68.0716 97.6884 68.1687 98.9197C68.2001 99.3597 68.2658 99.7939 68.3574 100.223C68.2116 100.205 68.0659 100.194 67.9201 100.185C67.7944 100.18 67.6686 100.174 67.5458 100.171C64.3772 100.088 61.3259 101.328 59.1116 103.531C58.3802 104.263 57.7373 105.097 57.2173 106.026C56.8659 106.648 56.5659 107.317 56.3316 108.02C55.2715 111.174 55.6516 114.465 57.1202 117.177L56.9944 117.24C55.7172 114.431 53.3287 112.14 50.1716 111.08C45.1343 109.388 39.7487 111.374 36.9287 115.588C36.8486 115.711 36.7688 115.834 36.6917 115.96C35.6146 114.697 34.1916 113.702 32.5059 113.134C30.766 112.551 28.9744 112.499 27.3087 112.891C26.9658 111.597 26.6631 110.291 26.3943 108.968L31.9429 98.657L34.0371 100.783C36.62 103.405 40.5914 104.071 43.8858 102.431L41.143 96.9113L42.8287 97.2942C45.6716 97.9455 48.5772 96.4998 49.7773 93.8428L50.4885 92.2656L53.2314 97.7885C55.6712 96.5742 57.3285 94.3058 57.8084 91.7313C57.9769 90.8284 58.0028 89.8856 57.8628 88.9398L57.4344 85.9856L58.7373 86.1885L75.9029 88.8684Z" fill="#7359F8"/>
<path d="M154.305 112.572C154.133 113.33 153.097 113.445 152.768 112.74C151.799 110.668 150.083 108.939 147.802 107.995C146.591 107.493 145.335 107.262 144.101 107.274C143.659 107.276 143.221 107.311 142.789 107.376C142.814 107.23 142.835 107.086 142.853 106.94C142.869 106.816 142.884 106.691 142.895 106.568C143.193 103.412 142.163 100.283 140.114 97.9258C139.437 97.1443 138.647 96.4487 137.755 95.8652C137.157 95.4714 136.512 95.1285 135.825 94.845C132.75 93.5737 129.442 93.731 126.637 95.0115L126.582 94.88C129.47 93.7985 131.918 91.5697 133.19 88.4935C135.222 83.5823 133.607 78.0742 129.594 74.9748C129.478 74.8854 129.36 74.7979 129.24 74.7131C130.572 73.7233 131.663 72.3719 132.344 70.728C133.286 68.447 133.275 66.0107 132.493 63.8615C132.227 63.13 133.039 62.4782 133.697 62.8924L145.887 70.5604C146.354 70.8541 146.403 71.5155 145.985 71.8748L144.563 73.096C142.004 75.2928 141.006 78.7674 141.942 81.9483C142.08 82.4178 142.593 82.6663 143.045 82.4787L146.347 81.1094C146.985 80.8444 147.644 81.4405 147.445 82.1019L147.444 82.1039C146.603 84.8962 147.847 87.8936 150.417 89.2709C151.027 89.5969 150.983 90.4847 150.345 90.7494L147.044 92.1185C146.591 92.3066 146.407 92.8464 146.642 93.2771C147.782 95.3607 149.729 96.8479 151.976 97.427C152.866 97.6578 153.805 97.7456 154.758 97.6723L156.627 97.5285C157.176 97.4861 157.61 97.9879 157.488 98.5257L157.442 98.7297L154.305 112.572Z" fill="#7359F8"/>
<path d="M82.7492 33.8977C83.461 34.2121 83.3743 35.2504 82.6194 35.4382C80.4001 35.9914 78.3737 37.3435 77.009 39.4003C76.2844 40.4935 75.816 41.6813 75.5906 42.8946C75.5081 43.3288 75.458 43.7649 75.4381 44.2016C75.3005 44.1491 75.1624 44.101 75.0233 44.0545C74.9038 44.0154 74.7848 43.9774 74.6664 43.9421C71.6258 43.0439 68.3571 43.4537 65.6506 45.0121C64.7538 45.5267 63.9192 46.1684 63.1755 46.9311C62.6743 47.4429 62.2138 48.0103 61.8034 48.6291C59.9653 51.4031 59.4844 54.6795 60.2021 57.6785L60.0627 57.7067C59.556 54.6647 57.8388 51.8341 55.0645 49.9946C50.6351 47.0582 44.9192 47.5848 41.1066 50.9284C40.9967 51.0255 40.8881 51.1237 40.7818 51.2257C40.0665 49.7278 38.9495 48.3986 37.4666 47.4145C35.4093 46.0514 33.0159 45.5948 30.7565 45.9494C29.9876 46.07 29.5036 45.1477 30.0368 44.5809L39.9029 34.0912C40.2806 33.6896 40.9393 33.7683 41.2116 34.2479L42.1369 35.8776C43.8016 38.8111 47.0197 40.4577 50.3212 40.1495C50.8085 40.1041 51.1508 39.6483 51.0537 39.169L50.3436 35.666C50.2063 34.9889 50.9176 34.4566 51.5287 34.7792L51.5306 34.7803C54.1094 36.1418 57.29 35.4973 59.1352 33.2392C59.5721 32.7038 60.4348 32.9168 60.5724 33.5944L61.2822 37.0963C61.3795 37.5773 61.8742 37.8614 62.342 37.7132C64.6061 36.9946 66.4392 35.3698 67.4389 33.2753C67.8362 32.446 68.1028 31.5417 68.2138 30.5923L68.4318 28.7302C68.4958 28.1828 69.0716 27.8536 69.5758 28.0762L69.7672 28.1607L82.7492 33.8977Z" fill="#7359F8"/>
<path d="M143.397 145.571C138.988 149.794 134.026 153.443 128.631 156.403C118.652 161.883 107.186 165 94.9973 165C82.8088 165 71.3488 161.886 61.3689 156.406C55.9745 153.448 51.0116 149.797 46.6002 145.571C51.0775 134.205 61.966 126.068 74.8116 125.611C75.1887 125.594 75.5715 125.585 75.9546 125.585H114.043C114.426 125.585 114.809 125.594 115.186 125.611C128.032 126.069 138.92 134.206 143.397 145.571Z" fill="#0E0D11"/>
<path d="M94.9973 147.674C94.9973 147.674 143.476 112.481 141.733 109.313C139.131 104.579 135.267 101.349 131.45 99.1579C125.043 95.4813 118.76 94.7353 118.76 94.7353L80.1704 127.487L94.9973 147.674Z" fill="#F87359"/>
<path d="M94.9973 147.674C94.9973 147.674 143.476 112.481 141.733 109.313C139.131 104.579 135.267 101.349 131.45 99.1579C135.353 103.476 139.1 110.045 133.335 115.808C132.404 116.739 131.379 117.37 130.287 117.749C126.476 119.075 122.93 121.065 120.008 123.848L94.9973 147.674Z" fill="#0E0D11"/>
<path d="M94.9973 147.674C94.9973 147.674 46.519 112.481 48.2611 109.313C50.8634 104.579 54.7276 101.349 58.5442 99.1579C64.9514 95.4813 71.2347 94.7353 71.2347 94.7353L94.9973 147.674Z" fill="#F87359"/>
<path d="M135.102 65.9344L121.749 73.8097V89.8293C121.749 93.5166 124.738 96.5058 128.426 96.5058C132.113 96.5058 135.102 93.5166 135.102 89.8293V65.9344Z" fill="#CCCCCC"/>
<path d="M54.8917 65.9344L68.2447 73.8097V89.8293C68.2447 93.5166 65.2555 96.5058 61.5682 96.5058C57.8809 96.5058 54.8917 93.5166 54.8917 89.8293V65.9344Z" fill="#CCCCCC"/>
<path d="M109.826 109.273V125.202C109.826 133.391 103.188 140.029 94.9984 140.029C86.8092 140.029 80.1707 133.391 80.1707 125.202V109.273H109.826Z" fill="#CCCCCC"/>
<path d="M128.012 64.6629V92.6572C128.012 101.774 124.317 110.029 118.346 116C112.366 121.98 104.114 125.671 94.9973 125.671C76.7631 125.671 61.983 110.891 61.983 92.6572V64.6629C61.983 63.1571 62.0831 61.6715 62.2802 60.2201C62.8859 55.7029 64.4086 51.4772 66.6544 47.7317C72.4173 38.0974 117.58 38.0974 123.34 47.7317C125.586 51.4775 127.109 55.7032 127.714 60.2201C127.911 61.6715 128.012 63.1571 128.012 64.6629Z" fill="#EDEDED"/>
<path d="M71.5476 92.6575V64.6635C71.5476 48.0552 83.814 34.3155 99.7803 31.9978C98.2184 31.7709 96.6223 31.6486 94.997 31.6486C76.7639 31.6486 61.9822 46.4304 61.9822 64.6635V92.6575C61.9822 110.891 76.7639 125.672 94.997 125.672C96.6221 125.672 98.2181 125.55 99.7805 125.323C83.814 123.005 71.5476 109.266 71.5476 92.6575Z" fill="#CCCCCC"/>
<path d="M111.432 86.1581V79.8308C111.432 78.1806 110.094 76.8427 108.444 76.8427C106.794 76.8427 105.456 78.1803 105.456 79.8308V86.1581C105.456 87.8083 106.793 89.1462 108.444 89.1462C110.094 89.146 111.432 87.8083 111.432 86.1581Z" fill="#0E0D11"/>
<path d="M78.5642 79.8305V86.1578C78.5642 87.808 79.9019 89.146 81.5523 89.146C83.2025 89.146 84.5405 87.8083 84.5405 86.1578V79.8305C84.5405 78.1803 83.2028 76.8424 81.5523 76.8424C79.9019 76.8427 78.5642 78.1803 78.5642 79.8305Z" fill="#0E0D11"/>
<path d="M109.48 82.8925C110.558 82.8925 111.432 82.0184 111.432 80.9401C111.432 79.8619 110.558 78.9878 109.48 78.9878C108.402 78.9878 107.528 79.8619 107.528 80.9401C107.528 82.0184 108.402 82.8925 109.48 82.8925Z" fill="#7F7D89"/>
<path d="M82.5886 82.8925C83.6669 82.8925 84.541 82.0184 84.541 80.9401C84.541 79.8619 83.6669 78.9878 82.5886 78.9878C81.5104 78.9878 80.6363 79.8619 80.6363 80.9401C80.6363 82.0184 81.5104 82.8925 82.5886 82.8925Z" fill="#7F7D89"/>
<path d="M107.297 86.6995C107.917 86.6995 108.419 86.197 108.419 85.5771C108.419 84.9572 107.917 84.4546 107.297 84.4546C106.677 84.4546 106.175 84.9572 106.175 85.5771C106.175 86.197 106.677 86.6995 107.297 86.6995Z" fill="#7F7D89"/>
<path d="M80.4085 86.6995C81.0284 86.6995 81.531 86.197 81.531 85.5771C81.531 84.9572 81.0284 84.4546 80.4085 84.4546C79.7886 84.4546 79.2861 84.9572 79.2861 85.5771C79.2861 86.197 79.7886 86.6995 80.4085 86.6995Z" fill="#7F7D89"/>
<path d="M69.2829 60.2204C69.2829 60.5652 69.2963 60.907 69.3231 61.2453C69.6408 65.2842 68.1812 69.2835 65.1182 71.9356C64.1609 72.7647 63.1095 73.4884 61.9827 74.0892V64.6635C61.9827 58.4721 63.6856 52.6834 66.6541 47.732C68.4484 49.7292 69.774 52.1548 70.4625 54.8378C69.7056 56.4746 69.2829 58.3004 69.2829 60.2204Z" fill="#0E0D11"/>
<path d="M128.012 64.6629V74.0886C126.885 73.4878 125.834 72.7641 124.876 71.935C121.814 69.2829 120.353 65.2836 120.671 61.2447C120.698 60.9064 120.711 60.5646 120.711 60.2198C120.711 58.2998 120.289 56.474 119.531 54.8369C120.22 52.154 121.546 49.7283 123.34 47.7311C126.309 52.6828 128.012 58.4715 128.012 64.6629Z" fill="#0E0D11"/>
<path d="M73.9132 78.0135L85.9927 82.6837L88.6714 75.7551L76.5919 71.0849L73.9132 78.0135Z" fill="#EDEDED"/>
<path d="M113.406 71.0863L101.326 75.7565L104.005 82.685L116.085 78.0148L113.406 71.0863Z" fill="#EDEDED"/>
<path d="M110.617 95.4572C110.617 100.789 107.946 105.497 103.866 108.314C101.346 110.057 98.2914 111.077 94.997 111.077C91.7026 111.077 88.6483 110.057 86.1283 108.314C82.0484 105.497 79.3769 100.788 79.3769 95.4572C80.8226 96.1802 82.3084 96.7973 83.8197 97.3086C85.4026 97.8429 87.014 98.2629 88.6396 98.5629C90.7396 98.9514 92.868 99.1459 94.9967 99.1459C97.1252 99.1459 99.2539 98.9514 101.354 98.5629C102.979 98.2629 104.591 97.8429 106.174 97.3086C107.686 96.797 109.171 96.1799 110.617 95.4572Z" fill="#0E0D11"/>
<path d="M103.866 108.314C101.346 110.057 98.2913 111.077 94.997 111.077C91.7026 111.077 88.6483 110.057 86.1283 108.314C88.6483 106.571 91.7026 105.551 94.997 105.551C98.2913 105.551 101.346 106.571 103.866 108.314Z" fill="#F87359"/>
<path d="M113.404 71.4581H76.5903L86.9166 79.2019H88.0555C90.0456 79.2019 91.6589 80.8149 91.6589 82.8052V88.3929C91.6589 90.2318 93.0974 91.809 94.9357 91.8426C96.8085 91.8768 98.3378 90.3688 98.3378 88.5037V82.8052C98.3378 80.8152 99.9511 79.2019 101.941 79.2019H103.078L113.404 71.4581Z" fill="#CCCCCC"/>
<path d="M106.174 97.3086C106.003 98.623 105.706 99.8658 105.38 100.954C104.648 103.4 103.76 105.077 103.76 105.077L102.226 100.923L101.354 98.5629C102.98 98.2629 104.591 97.8429 106.174 97.3086Z" fill="#F0F0F0"/>
<path d="M88.6401 98.5629L87.7687 100.923L86.2344 105.077C86.2344 105.077 85.3457 103.4 84.6143 100.954C84.2886 99.8658 83.9914 98.623 83.8199 97.3086C85.4029 97.8429 87.0142 98.2629 88.6401 98.5629Z" fill="#F0F0F0"/>
<path d="M71.3799 73.6013L74.2056 69.205C74.7098 68.4205 75.7549 68.193 76.5397 68.6972L88.1006 76.1282C89.6786 77.1423 88.6743 79.5888 86.8387 79.2016L72.452 76.167C71.2951 75.9231 70.7406 74.5964 71.3799 73.6013Z" fill="#0E0D11"/>
<path d="M118.614 73.6013L115.789 69.205C115.284 68.4205 114.239 68.193 113.455 68.6972L101.894 76.1282C100.316 77.1423 101.32 79.5888 103.155 79.2016L117.542 76.167C118.699 75.9231 119.254 74.5964 118.614 73.6013Z" fill="#0E0D11"/>
<path d="M98.6162 116.791H91.3784C90.642 116.791 90.0448 116.194 90.0448 115.458C90.0448 114.721 90.6417 114.124 91.3784 114.124H98.6162C99.3526 114.124 99.9498 114.721 99.9498 115.458C99.9495 116.195 99.3526 116.791 98.6162 116.791Z" fill="#CCCCCC"/>
<path d="M123.34 47.7314C117.58 38.0971 107.043 31.6486 94.997 31.6486C82.9542 31.6486 72.4171 38.0971 66.6541 47.7314C64.4083 51.4772 62.8856 55.7029 62.2799 60.2198H69.2826C69.2826 53.1198 75.0399 47.3628 82.1397 47.3628C82.3122 47.3628 82.4842 47.3664 82.6551 47.3732C88.6833 47.6111 93.3791 52.7178 93.3791 58.7509V60.5075C93.3791 61.4008 94.1034 62.1252 94.9967 62.1252C95.89 62.1252 96.6144 61.4008 96.6144 60.5075V58.7509C96.6144 52.7178 101.31 47.6111 107.338 47.3732C107.509 47.3664 107.681 47.3628 107.854 47.3628C114.954 47.3628 120.711 53.12 120.711 60.2198H127.714C127.109 55.7029 125.586 51.4772 123.34 47.7314Z" fill="#0E0D11"/>
<path d="M94.9973 147.674C94.9973 147.674 46.519 112.481 48.2611 109.313C50.8634 104.579 54.7276 101.349 58.5442 99.1579C54.642 103.476 50.8943 110.045 56.6597 115.808C57.591 116.739 58.6159 117.37 59.7074 117.749C63.5189 119.075 67.0645 121.065 69.9862 123.848L94.9973 147.674Z" fill="#0E0D11"/>
<path d="M106.604 145.612L95.7881 149.62C95.2786 149.809 94.7184 149.809 94.209 149.62L83.3934 145.612C81.9095 145.062 80.3317 146.16 80.3317 147.743V154.412C80.3317 155.994 81.9095 157.092 83.3934 156.542L94.209 152.534C94.7184 152.345 95.2786 152.345 95.7881 152.534L106.604 156.542C108.088 157.092 109.665 155.994 109.665 154.412V147.743C109.665 146.16 108.088 145.062 106.604 145.612Z" fill="#F87359"/>
<path d="M105.38 100.954C104.649 103.4 103.76 105.077 103.76 105.077L102.226 100.923C102.703 100.746 103.22 100.649 103.76 100.649C104.331 100.649 104.877 100.757 105.38 100.954Z" fill="#F87359"/>
<path d="M87.7687 100.923L86.2344 105.077C86.2344 105.077 85.3458 103.4 84.6143 100.954C85.1172 100.757 85.6629 100.649 86.2344 100.649C86.7742 100.649 87.2915 100.746 87.7687 100.923Z" fill="#F87359"/>
</g>
<defs>
<filter id="filter0_d_189_194" x="0" y="0" width="190" height="190" filterUnits="userSpaceOnUse" color-interpolation-filters="sRGB">
<feFlood flood-opacity="0" result="BackgroundImageFix"/>
<feColorMatrix in="SourceAlpha" type="matrix" values="0 0 0 0 0 0 0 0 0 0 0 0 0 0 0 0 0 0 127 0" result="hardAlpha"/>
<feOffset/>
<feGaussianBlur stdDeviation="10"/>
<feComposite in2="hardAlpha" operator="out"/>
<feColorMatrix type="matrix" values="0 0 0 0 1 0 0 0 0 1 0 0 0 0 1 0 0 0 0.2 0"/>
<feBlend mode="normal" in2="BackgroundImageFix" result="effect1_dropShadow_189_194"/>
<feBlend mode="normal" in="SourceGraphic" in2="effect1_dropShadow_189_194" result="shape"/>
</filter>
<clipPath id="clip0_189_194">
<rect width="140" height="140" fill="white" transform="translate(25 25)"/>
</clipPath>
</defs>
</svg>
